<svg xmlns="http://www.w3.org/2000/svg" xmlns:xlink="http://www.w3.org/1999/xlink" width="500" zoomAndPan="magnify" viewBox="0 0 375 374.999991" height="300" preserveAspectRatio="xMidYMid meet" version="1.0"><defs><clipPath id="id1"><path d="M 112 150 L 165.421875 150 L 165.421875 235.660156 L 112 235.660156 Z M 112 150 " clip-rule="nonzero"/></clipPath><clipPath id="id2"><path d="M 86.671875 139.660156 L 140 139.660156 L 140 225 L 86.671875 225 Z M 86.671875 139.660156 " clip-rule="nonzero"/></clipPath><clipPath id="id3"><path d="M 209.269531 178 L 266 178 L 266 235.007812 L 209.269531 235.007812 Z M 209.269531 178 " clip-rule="nonzero"/></clipPath><clipPath id="id4"><path d="M 209.269531 150.257812 L 294.019531 150.257812 L 294.019531 170 L 209.269531 170 Z M 209.269531 150.257812 " clip-rule="nonzero"/></clipPath><clipPath id="id5"><path d="M 193 227 L 206 227 L 206 233.824219 L 193 233.824219 Z M 193 227 " clip-rule="nonzero"/></clipPath><clipPath id="id6"><path d="M 193 226 L 207 226 L 207 233.824219 L 193 233.824219 Z M 193 226 " clip-rule="nonzero"/></clipPath><clipPath id="id7"><path d="M 167 199 L 209 199 L 209 233.824219 L 167 233.824219 Z M 167 199 " clip-rule="nonzero"/></clipPath><clipPath id="id8"><path d="M 167 199 L 209.230469 199 L 209.230469 233.824219 L 167 233.824219 Z M 167 199 " clip-rule="nonzero"/></clipPath><clipPath id="id9"><path d="M 171 223 L 188 223 L 188 233.824219 L 171 233.824219 Z M 171 223 " clip-rule="nonzero"/></clipPath><clipPath id="id10"><path d="M 171 223 L 189 223 L 189 233.824219 L 171 233.824219 Z M 171 223 " clip-rule="nonzero"/></clipPath><clipPath id="id11"><path d="M 167 224 L 172 224 L 172 233.824219 L 167 233.824219 Z M 167 224 " clip-rule="nonzero"/></clipPath></defs><g clip-path="url(#id1)"><path fill="#000000" d="M 151.546875 209.179688 L 112.925781 186.71875 L 112.925781 205.117188 L 165.414062 235.644531 L 165.414062 150.636719 L 151.546875 150.636719 L 151.546875 209.179688 " fill-opacity="1" fill-rule="nonzero"/></g><g clip-path="url(#id2)"><path fill="#25c4b6" d="M 86.683594 139.652344 L 86.683594 224.660156 L 100.550781 224.660156 L 100.550781 166.113281 L 139.171875 188.574219 L 139.171875 170.179688 L 86.683594 139.652344 " fill-opacity="1" fill-rule="nonzero"/></g><g clip-path="url(#id3)"><path fill="#25c4b6" d="M 209.269531 178.378906 L 209.269531 235.003906 L 228.226562 216.042969 L 228.226562 197.335938 L 246.933594 197.335938 L 265.894531 178.378906 L 209.269531 178.378906 " fill-opacity="1" fill-rule="nonzero"/></g><g clip-path="url(#id4)"><path fill="#000000" d="M 275.054688 169.214844 L 209.269531 169.214844 L 209.269531 150.253906 L 294.015625 150.253906 L 275.054688 169.214844 " fill-opacity="1" fill-rule="evenodd"/></g><g clip-path="url(#id5)"><path fill="#ffffff" d="M 193.679688 233.316406 L 205.921875 233.316406 L 205.921875 227.164062 L 193.679688 227.164062 L 193.679688 233.316406 " fill-opacity="1" fill-rule="nonzero"/></g><g clip-path="url(#id6)"><path stroke-linecap="round" transform="matrix(0.0332724, 0, 0, -0.0334047, 117.490338, 266.460979)" fill="none" stroke-linejoin="round" d="M 2289.864617 992.212599 L 2657.802554 992.212599 L 2657.802554 1176.388545 L 2289.864617 1176.388545 Z M 2289.864617 992.212599 " stroke="#181821" stroke-width="30" stroke-opacity="1" stroke-miterlimit="10"/></g><path fill="#ffffff" d="M 191.394531 181.582031 L 196.234375 186.0625 C 190.9375 192.15625 195.59375 203.796875 195.59375 203.796875 L 179.269531 197.765625 C 181.3125 189.214844 178.976562 186.0625 178.976562 186.0625 L 191.394531 181.582031 " fill-opacity="1" fill-rule="nonzero"/><path stroke-linecap="round" transform="matrix(0.0332724, 0, 0, -0.0334047, 117.490338, 266.460979)" fill="none" stroke-linejoin="round" d="M 2221.184434 2540.927672 L 2366.645539 2406.800808 C 2207.448397 2224.378918 2347.391607 1875.906332 2347.391607 1875.906332 L 1856.768557 2056.457229 C 1918.169814 2312.432561 1847.963405 2406.800808 1847.963405 2406.800808 Z M 2221.184434 2540.927672 " stroke="#181821" stroke-width="30" stroke-opacity="1" stroke-miterlimit="10"/><path fill="#ffffff" d="M 187.675781 203 L 189.332031 203.40625 L 194.265625 183.386719 L 192.609375 182.976562 L 187.675781 203 " fill-opacity="1" fill-rule="nonzero"/><path stroke-linecap="round" transform="matrix(0.0332724, 0, 0, -0.0334047, 117.490338, 266.460979)" fill="none" stroke-linejoin="round" d="M 2109.417708 1899.761503 L 2159.196166 1887.600043 L 2307.47492 2486.902728 L 2257.696462 2499.181124 Z M 2109.417708 1899.761503 " stroke="#181821" stroke-width="30" stroke-opacity="1" stroke-miterlimit="10"/><path fill="#ffffff" d="M 178.910156 202.496094 L 180.5625 202.90625 L 185.496094 182.882812 L 183.84375 182.472656 L 178.910156 202.496094 " fill-opacity="1" fill-rule="nonzero"/><path stroke-linecap="round" transform="matrix(0.0332724, 0, 0, -0.0334047, 117.490338, 266.460979)" fill="none" stroke-linejoin="round" d="M 1845.967571 1914.84639 L 1895.628626 1902.567993 L 2043.90738 2501.987615 L 1994.246325 2514.266011 Z M 1845.967571 1914.84639 " stroke="#181821" stroke-width="30" stroke-opacity="1" stroke-miterlimit="10"/><path fill="#ffffff" d="M 188.570312 196.433594 C 188.570312 198.285156 187.074219 199.785156 185.234375 199.785156 C 183.390625 199.785156 181.898438 198.285156 181.898438 196.433594 C 181.898438 194.585938 183.390625 193.085938 185.234375 193.085938 C 187.074219 193.085938 188.570312 194.585938 188.570312 196.433594 " fill-opacity="1" fill-rule="nonzero"/><path stroke-linecap="round" transform="matrix(0.0332724, 0, 0, -0.0334047, 117.490338, 266.460979)" fill="none" stroke-linejoin="round" d="M 2136.302771 2096.332783 C 2136.302771 2040.904593 2091.337797 1996.000743 2036.041444 1996.000743 C 1980.62769 1996.000743 1935.780118 2040.904593 1935.780118 2096.332783 C 1935.780118 2151.644036 1980.62769 2196.547886 2036.041444 2196.547886 C 2091.337797 2196.547886 2136.302771 2151.644036 2136.302771 2096.332783 Z M 2136.302771 2096.332783 " stroke="#181821" stroke-width="30" stroke-opacity="1" stroke-miterlimit="10"/><path fill="#ffffff" d="M 183.425781 194.585938 C 183.246094 194.402344 183.085938 194.207031 182.9375 194.007812 C 182.296875 194.617188 181.898438 195.476562 181.898438 196.433594 C 181.898438 198.285156 183.390625 199.785156 185.234375 199.785156 C 186.164062 199.785156 187.003906 199.402344 187.609375 198.785156 C 186.214844 197.382812 184.820312 195.984375 183.425781 194.585938 " fill-opacity="1" fill-rule="nonzero"/><path stroke-linecap="round" transform="matrix(0.0332724, 0, 0, -0.0334047, 117.490338, 266.460979)" fill="none" stroke-linejoin="round" d="M 1981.684308 2151.644036 C 1976.283815 2157.14008 1971.470332 2162.986935 1967.009055 2168.950728 C 1947.755124 2150.708539 1935.780118 2124.982375 1935.780118 2096.332783 C 1935.780118 2040.904593 1980.62769 1996.000743 2036.041444 1996.000743 C 2063.983126 1996.000743 2089.224561 2007.46058 2107.421874 2025.936643 C 2065.509352 2067.917065 2023.59683 2109.780551 1981.684308 2151.644036 Z M 1981.684308 2151.644036 " stroke="#181821" stroke-width="30" stroke-opacity="1" stroke-miterlimit="10"/><path fill="#ffffff" d="M 186.445312 196.433594 C 186.445312 197.109375 185.902344 197.652344 185.234375 197.652344 C 184.5625 197.652344 184.019531 197.109375 184.019531 196.433594 C 184.019531 195.761719 184.5625 195.21875 185.234375 195.21875 C 185.902344 195.21875 186.445312 195.761719 186.445312 196.433594 " fill-opacity="1" fill-rule="nonzero"/><path stroke-linecap="round" transform="matrix(0.0332724, 0, 0, -0.0334047, 117.490338, 266.460979)" fill="none" stroke-linejoin="round" d="M 2072.436071 2096.332783 C 2072.436071 2076.102663 2056.11719 2059.848405 2036.041444 2059.848405 C 2015.848297 2059.848405 1999.529416 2076.102663 1999.529416 2096.332783 C 1999.529416 2116.445966 2015.848297 2132.700224 2036.041444 2132.700224 C 2056.11719 2132.700224 2072.436071 2116.445966 2072.436071 2096.332783 Z M 2072.436071 2096.332783 " stroke="#181821" stroke-width="30" stroke-opacity="1" stroke-miterlimit="10"/><path fill="#ffffff" d="M 188.921875 158.015625 C 185.664062 157.3125 178.480469 159.253906 175.917969 161.339844 C 170.113281 166.058594 168.519531 175.953125 172.734375 182.890625 C 173.660156 184.410156 175.71875 185.933594 177.554688 186.0625 C 177.566406 186.0625 193.828125 187.226562 195.636719 172.707031 C 195.636719 172.707031 196.539062 159.65625 188.921875 158.015625 " fill-opacity="1" fill-rule="nonzero"/><path stroke-linecap="round" transform="matrix(0.0332724, 0, 0, -0.0334047, 117.490338, 266.460979)" fill="none" stroke-linejoin="round" d="M 2146.868953 3246.409251 C 2048.955667 3267.457931 1833.053348 3209.340188 1756.037621 3146.895772 C 1581.578216 3005.635744 1533.678191 2709.434046 1660.354973 2501.75374 C 1688.179253 2456.265205 1750.050118 2410.659732 1805.229069 2406.800808 C 1805.581275 2406.800808 2294.325893 2371.953549 2348.68303 2806.608784 C 2348.68303 2806.608784 2375.802897 3197.295666 2146.868953 3246.409251 Z M 2146.868953 3246.409251 " stroke="#181821" stroke-width="30" stroke-opacity="1" stroke-miterlimit="10"/><path fill="#ffffff" d="M 185.855469 174.609375 L 180.761719 174.609375 C 180.265625 176.082031 179.707031 177.542969 179.066406 178.957031 C 180.117188 179.515625 181.316406 179.835938 182.589844 179.835938 C 184.910156 179.835938 186.984375 178.78125 188.363281 177.125 C 187.527344 176.289062 186.691406 175.445312 185.855469 174.609375 " fill-opacity="1" fill-rule="nonzero"/><path stroke-linecap="round" transform="matrix(0.0332724, 0, 0, -0.0334047, 117.490338, 266.460979)" fill="none" stroke-linejoin="round" d="M 2054.708366 2749.660412 L 1901.616129 2749.660412 C 1886.706072 2705.575122 1869.917583 2661.840643 1850.663651 2619.509409 C 1882.244795 2602.787403 1918.287216 2593.19856 1956.560275 2593.19856 C 2026.297077 2593.19856 2088.63755 2624.771579 2130.080464 2674.352913 C 2104.956432 2699.377455 2079.832399 2724.63587 2054.708366 2749.660412 Z M 2054.708366 2749.660412 " stroke="#181821" stroke-width="30" stroke-opacity="1" stroke-miterlimit="10"/><path fill="#ffffff" d="M 185.855469 166.566406 L 180.761719 166.566406 C 180.265625 165.09375 179.707031 163.632812 179.066406 162.21875 C 180.117188 161.65625 181.316406 161.339844 182.589844 161.339844 C 184.910156 161.339844 186.984375 162.390625 188.363281 164.050781 C 187.527344 164.886719 186.691406 165.726562 185.855469 166.566406 " fill-opacity="1" fill-rule="nonzero"/><path stroke-linecap="round" transform="matrix(0.0332724, 0, 0, -0.0334047, 117.490338, 266.460979)" fill="none" stroke-linejoin="round" d="M 2054.708366 2990.43392 L 1901.616129 2990.43392 C 1886.706072 3034.51921 1869.917583 3078.253688 1850.663651 3120.584922 C 1882.244795 3137.423866 1918.287216 3146.895772 1956.560275 3146.895772 C 2026.297077 3146.895772 2088.63755 3115.439689 2130.080464 3065.741418 C 2104.956432 3040.716876 2079.832399 3015.575398 2054.708366 2990.43392 Z M 2054.708366 2990.43392 " stroke="#181821" stroke-width="30" stroke-opacity="1" stroke-miterlimit="10"/><path fill="#ffffff" d="M 176.746094 168.988281 L 179.066406 173.539062 C 177.988281 174.65625 176.949219 175.820312 175.984375 177.039062 C 175.007812 176.355469 174.179688 175.429688 173.597656 174.289062 C 172.542969 172.21875 172.53125 169.886719 173.371094 167.898438 C 174.492188 168.261719 175.621094 168.625 176.746094 168.988281 " fill-opacity="1" fill-rule="nonzero"/><path stroke-linecap="round" transform="matrix(0.0332724, 0, 0, -0.0334047, 117.490338, 266.460979)" fill="none" stroke-linejoin="round" d="M 1780.92685 2917.932912 L 1850.663651 2781.70118 C 1818.260693 2748.257166 1787.031755 2713.409908 1758.033456 2676.92553 C 1728.68295 2697.389524 1703.793722 2725.103619 1686.30082 2759.249255 C 1654.602274 2821.225923 1654.250068 2891.037377 1679.491503 2950.558365 C 1713.185883 2939.683214 1747.115068 2928.808063 1780.92685 2917.932912 Z M 1780.92685 2917.932912 " stroke="#181821" stroke-width="30" stroke-opacity="1" stroke-miterlimit="10"/><path fill="#ffffff" d="M 190.117188 170.46875 C 190.117188 174.644531 186.746094 178.027344 182.589844 178.027344 C 178.433594 178.027344 175.0625 174.644531 175.0625 170.46875 C 175.0625 166.292969 178.433594 162.910156 182.589844 162.910156 C 186.746094 162.910156 190.117188 166.292969 190.117188 170.46875 " fill-opacity="1" fill-rule="nonzero"/><path stroke-linecap="round" transform="matrix(0.0332724, 0, 0, -0.0334047, 117.490338, 266.460979)" fill="none" stroke-linejoin="round" d="M 2182.793972 2873.613747 C 2182.793972 2748.607978 2081.476027 2647.340441 1956.560275 2647.340441 C 1831.644524 2647.340441 1730.326579 2748.607978 1730.326579 2873.613747 C 1730.326579 2998.619517 1831.644524 3099.887054 1956.560275 3099.887054 C 2081.476027 3099.887054 2182.793972 2998.619517 2182.793972 2873.613747 Z M 2182.793972 2873.613747 " stroke="#181821" stroke-width="30" stroke-opacity="1" stroke-miterlimit="10"/><path fill="#ffffff" d="M 186.976562 170.46875 C 186.976562 172.902344 185.015625 174.875 182.589844 174.875 C 180.167969 174.875 178.203125 172.902344 178.203125 170.46875 C 178.203125 168.035156 180.167969 166.0625 182.589844 166.0625 C 185.015625 166.0625 186.976562 168.035156 186.976562 170.46875 " fill-opacity="1" fill-rule="nonzero"/><path stroke-linecap="round" transform="matrix(0.0332724, 0, 0, -0.0334047, 117.490338, 266.460979)" fill="none" stroke-linejoin="round" d="M 2088.402746 2873.613747 C 2088.402746 2800.761928 2029.466931 2741.708688 1956.560275 2741.708688 C 1883.771022 2741.708688 1824.717804 2800.761928 1824.717804 2873.613747 C 1824.717804 2946.465566 1883.771022 3005.518807 1956.560275 3005.518807 C 2029.466931 3005.518807 2088.402746 2946.465566 2088.402746 2873.613747 Z M 2088.402746 2873.613747 " stroke="#181821" stroke-width="30" stroke-opacity="1" stroke-miterlimit="10"/><path fill="#ffffff" d="M 184.636719 170.46875 C 184.636719 171.601562 183.71875 172.523438 182.589844 172.523438 C 181.460938 172.523438 180.542969 171.601562 180.542969 170.46875 C 180.542969 169.335938 181.460938 168.414062 182.589844 168.414062 C 183.71875 168.414062 184.636719 169.335938 184.636719 170.46875 " fill-opacity="1" fill-rule="nonzero"/><path stroke-linecap="round" transform="matrix(0.0332724, 0, 0, -0.0334047, 117.490338, 266.460979)" fill="none" stroke-linejoin="round" d="M 2018.078935 2873.613747 C 2018.078935 2839.701986 1990.48946 2812.104828 1956.560275 2812.104828 C 1922.631091 2812.104828 1895.041616 2839.701986 1895.041616 2873.613747 C 1895.041616 2907.525509 1922.631091 2935.122667 1956.560275 2935.122667 C 1990.48946 2935.122667 2018.078935 2907.525509 2018.078935 2873.613747 Z M 2018.078935 2873.613747 " stroke="#181821" stroke-width="30" stroke-opacity="1" stroke-miterlimit="10"/><path fill="#ffffff" d="M 204.527344 177.140625 L 204.632812 176.390625 C 204.632812 176.390625 203.160156 175.199219 202.503906 173.96875 C 202.503906 173.96875 201.492188 171.601562 200.964844 169.851562 C 200.507812 168.066406 199.804688 166.265625 198.847656 164.265625 C 196.320312 158.960938 194.207031 156.433594 189.242188 158.050781 C 187.40625 158.648438 185.828125 160.183594 184.636719 162.304688 C 186.984375 163.695312 188.585938 166.261719 188.585938 169.148438 C 188.585938 172.605469 186.292969 175.601562 183.175781 176.671875 C 185.390625 179.800781 187.769531 183 190.675781 185.28125 C 191.007812 185.542969 191.34375 185.800781 191.675781 186.0625 L 200.359375 186.0625 C 200.359375 186.0625 202.042969 186.308594 202.042969 185.351562 L 201.449219 177.425781 C 201.449219 177.417969 201.449219 177.410156 201.449219 177.402344 L 204.527344 177.140625 " fill-opacity="1" fill-rule="nonzero"/><path stroke-linecap="round" transform="matrix(0.0332724, 0, 0, -0.0334047, 117.490338, 266.460979)" fill="none" stroke-linejoin="round" d="M 2615.890032 2673.885165 L 2619.059887 2696.33709 C 2619.059887 2696.33709 2574.799324 2732.002908 2555.075785 2768.838098 C 2555.075785 2768.838098 2524.668661 2839.701986 2508.819388 2892.089811 C 2495.083351 2945.53007 2473.950987 2999.438077 2445.187492 3059.309877 C 2369.228384 3218.110471 2305.71389 3293.768781 2156.495919 3245.356817 C 2101.316969 3227.46544 2053.886552 3181.509156 2018.078935 3118.012306 C 2088.63755 3076.382695 2136.77238 2999.555014 2136.77238 2913.13849 C 2136.77238 2809.649149 2067.857393 2719.958386 1974.170579 2687.917618 C 2040.737525 2594.250994 2112.235357 2498.479501 2199.582461 2430.18823 C 2209.561633 2422.353443 2219.658207 2414.635594 2229.637379 2406.800808 L 2490.622075 2406.800808 C 2490.622075 2406.800808 2541.222346 2399.43377 2541.222346 2428.083362 L 2523.377239 2665.348756 C 2523.377239 2665.58263 2523.377239 2665.816505 2523.377239 2666.050379 Z M 2615.890032 2673.885165 " stroke="#181821" stroke-width="30" stroke-opacity="1" stroke-miterlimit="10"/><path stroke-linecap="round" transform="matrix(0.0332724, 0, 0, -0.0334047, 117.490338, 266.460979)" fill="none" stroke-linejoin="round" d="M 2426.872776 2882.150156 C 2426.872776 2864.258779 2419.593851 2851.27876 2394.235014 2851.27876 C 2368.758775 2851.27876 2328.842088 2852.097319 2328.842088 2869.988697 C 2328.842088 2887.880075 2368.406569 2914.658673 2393.882808 2914.658673 C 2419.359047 2914.658673 2426.872776 2900.041534 2426.872776 2882.150156 Z M 2426.872776 2882.150156 " stroke="#181821" stroke-width="30" stroke-opacity="1" stroke-miterlimit="10"/><path stroke-linecap="round" transform="matrix(0.0332724, 0, 0, -0.0334047, 117.490338, 266.460979)" fill="none" stroke-linejoin="round" d="M 2299.726386 2928.340315 C 2299.726386 2928.340315 2349.739648 2966.227938 2419.006841 2966.227938 " stroke="#181821" stroke-width="30" stroke-opacity="1" stroke-miterlimit="10"/><path fill="#ffffff" d="M 177 199.910156 L 177.859375 196.433594 L 196.035156 201.074219 L 196.523438 203.507812 L 177 199.910156 " fill-opacity="1" fill-rule="nonzero"/><path stroke-linecap="round" transform="matrix(0.0332724, 0, 0, -0.0334047, 117.490338, 266.460979)" fill="none" stroke-linejoin="round" d="M 1788.557982 1992.258756 L 1814.386427 2096.332783 L 2360.658036 1957.411497 L 2375.333289 1884.559678 Z M 1788.557982 1992.258756 " stroke="#181821" stroke-width="30" stroke-opacity="1" stroke-miterlimit="10"/><g clip-path="url(#id7)"><path fill="#ffffff" d="M 202.96875 227.164062 L 208.703125 227.164062 C 208.003906 220.023438 207.4375 211.554688 201.503906 207.171875 C 199.847656 205.945312 198.183594 204.722656 196.523438 203.507812 L 177.363281 199.609375 C 166.332031 208.410156 167.820312 233.316406 167.820312 233.316406 L 195.269531 233.316406 C 196.09375 229.828125 199.269531 227.164062 202.96875 227.164062 " fill-opacity="1" fill-rule="nonzero"/></g><g clip-path="url(#id8)"><path stroke-linecap="round" transform="matrix(0.0332724, 0, 0, -0.0334047, 117.490338, 266.460979)" fill="none" stroke-linejoin="round" d="M 2569.046625 1176.388545 L 2741.392794 1176.388545 C 2720.377832 1390.149581 2703.354539 1643.669234 2525.020867 1774.87267 C 2475.24241 1811.590922 2425.229148 1848.192237 2375.333289 1884.559678 L 1799.47637 2001.262913 C 1467.933059 1737.803606 1512.663229 992.212599 1512.663229 992.212599 L 2337.64724 992.212599 C 2362.419066 1096.637437 2457.86691 1176.388545 2569.046625 1176.388545 Z M 2569.046625 1176.388545 " stroke="#181821" stroke-width="30" stroke-opacity="1" stroke-miterlimit="10"/></g><g clip-path="url(#id9)"><path fill="#ffffff" d="M 186.808594 233.316406 L 187.683594 223.5 L 171.5 223.5 L 172.375 233.316406 L 186.808594 233.316406 " fill-opacity="1" fill-rule="nonzero"/></g><g clip-path="url(#id10)"><path fill="#000000" d="M 172.792969 233.316406 L 171.953125 223.917969 L 187.226562 223.917969 L 186.390625 233.316406 L 187.226562 233.316406 L 188.097656 223.535156 C 188.105469 223.417969 188.066406 223.304688 187.988281 223.21875 C 187.910156 223.132812 187.800781 223.082031 187.683594 223.082031 L 171.5 223.082031 C 171.382812 223.082031 171.269531 223.132812 171.191406 223.21875 C 171.113281 223.304688 171.074219 223.417969 171.085938 223.535156 L 171.957031 233.316406 L 172.792969 233.316406 " fill-opacity="1" fill-rule="nonzero"/></g><path fill="#ffffff" d="M 187.210938 228.785156 L 187.683594 223.5 L 171.5 223.5 L 171.96875 228.785156 L 187.210938 228.785156 " fill-opacity="1" fill-rule="nonzero"/><path fill="#000000" d="M 172.351562 228.367188 L 186.832031 228.367188 L 187.226562 223.917969 L 171.953125 223.917969 Z M 187.210938 229.203125 L 171.96875 229.203125 C 171.753906 229.203125 171.574219 229.035156 171.554688 228.824219 L 171.085938 223.535156 C 171.074219 223.417969 171.113281 223.304688 171.191406 223.21875 C 171.269531 223.132812 171.382812 223.082031 171.5 223.082031 L 187.683594 223.082031 C 187.800781 223.082031 187.910156 223.132812 187.988281 223.21875 C 188.066406 223.304688 188.105469 223.417969 188.097656 223.535156 L 187.625 228.824219 C 187.605469 229.035156 187.425781 229.203125 187.210938 229.203125 " fill-opacity="1" fill-rule="nonzero"/><path fill="#ffffff" d="M 188.804688 225.027344 C 189.027344 223.144531 189.152344 221.167969 189.152344 219.121094 C 189.152344 206.878906 184.871094 202.203125 179.589844 202.203125 C 174.3125 202.203125 170.03125 206.878906 170.03125 219.121094 C 170.03125 221.167969 170.152344 223.144531 170.375 225.027344 L 188.804688 225.027344 " fill-opacity="1" fill-rule="nonzero"/><path fill="#000000" d="M 170.746094 224.605469 L 188.433594 224.605469 C 188.632812 222.8125 188.734375 220.96875 188.734375 219.121094 C 188.734375 208.480469 185.488281 202.621094 179.589844 202.621094 C 173.695312 202.621094 170.445312 208.480469 170.445312 219.121094 C 170.445312 220.96875 170.546875 222.808594 170.746094 224.605469 Z M 188.804688 225.445312 L 170.375 225.445312 C 170.167969 225.445312 169.988281 225.285156 169.964844 225.074219 C 169.730469 223.128906 169.613281 221.125 169.613281 219.121094 C 169.613281 213.28125 170.578125 208.8125 172.480469 205.84375 C 174.183594 203.1875 176.640625 201.785156 179.589844 201.785156 C 182.539062 201.785156 185 203.1875 186.699219 205.84375 C 188.601562 208.8125 189.566406 213.28125 189.566406 219.121094 C 189.566406 221.128906 189.449219 223.128906 189.21875 225.074219 C 189.195312 225.285156 189.015625 225.445312 188.804688 225.445312 " fill-opacity="1" fill-rule="nonzero"/><path fill="#ffffff" d="M 184.816406 225.679688 C 184.816406 228.578125 182.476562 230.929688 179.589844 230.929688 C 176.703125 230.929688 174.367188 228.578125 174.367188 225.679688 C 174.367188 222.785156 176.703125 220.433594 179.589844 220.433594 C 182.476562 220.433594 184.816406 222.785156 184.816406 225.679688 " fill-opacity="1" fill-rule="nonzero"/><path fill="#000000" d="M 179.589844 220.851562 C 176.9375 220.851562 174.78125 223.019531 174.78125 225.679688 C 174.78125 228.34375 176.9375 230.507812 179.589844 230.507812 C 182.242188 230.507812 184.402344 228.34375 184.402344 225.679688 C 184.402344 223.019531 182.242188 220.851562 179.589844 220.851562 Z M 179.589844 231.34375 C 176.480469 231.34375 173.949219 228.804688 173.949219 225.679688 C 173.949219 222.558594 176.480469 220.015625 179.589844 220.015625 C 182.703125 220.015625 185.234375 222.558594 185.234375 225.679688 C 185.234375 228.804688 182.703125 231.34375 179.589844 231.34375 " fill-opacity="1" fill-rule="nonzero"/><path fill="#ffffff" d="M 182.792969 225.679688 C 182.792969 227.457031 181.359375 228.894531 179.589844 228.894531 C 177.824219 228.894531 176.390625 227.457031 176.390625 225.679688 C 176.390625 223.90625 177.824219 222.46875 179.589844 222.46875 C 181.359375 222.46875 182.792969 223.90625 182.792969 225.679688 " fill-opacity="1" fill-rule="nonzero"/><path fill="#000000" d="M 179.589844 222.886719 C 178.054688 222.886719 176.804688 224.140625 176.804688 225.679688 C 176.804688 227.222656 178.054688 228.476562 179.589844 228.476562 C 181.125 228.476562 182.375 227.222656 182.375 225.679688 C 182.375 224.140625 181.125 222.886719 179.589844 222.886719 Z M 179.589844 229.3125 C 177.597656 229.3125 175.972656 227.683594 175.972656 225.679688 C 175.972656 223.679688 177.597656 222.050781 179.589844 222.050781 C 181.585938 222.050781 183.207031 223.679688 183.207031 225.679688 C 183.207031 227.683594 181.585938 229.3125 179.589844 229.3125 " fill-opacity="1" fill-rule="nonzero"/><path fill="#000000" d="M 179.589844 222.886719 C 179.363281 222.886719 179.175781 222.699219 179.175781 222.46875 L 179.175781 208.933594 C 179.175781 208.816406 179.226562 208.703125 179.3125 208.625 L 184.539062 203.90625 C 184.710938 203.753906 184.972656 203.765625 185.125 203.9375 C 185.28125 204.109375 185.265625 204.375 185.097656 204.527344 L 180.007812 209.121094 L 180.007812 222.46875 C 180.007812 222.699219 179.820312 222.886719 179.589844 222.886719 " fill-opacity="1" fill-rule="nonzero"/><g clip-path="url(#id11)"><path fill="#000000" d="M 168.832031 233.316406 C 169.378906 228.757812 171.292969 225.300781 171.332031 225.230469 C 171.445312 225.03125 171.375 224.773438 171.175781 224.660156 C 170.972656 224.546875 170.722656 224.617188 170.605469 224.820312 C 170.527344 224.957031 168.644531 228.3125 168.019531 232.882812 C 168 233.023438 167.980469 233.171875 167.964844 233.316406 L 168.832031 233.316406 " fill-opacity="1" fill-rule="nonzero"/></g></svg>